<svg width="120" height="34" viewBox="0 0 120 34" fill="none" xmlns="http://www.w3.org/2000/svg">
<g clip-path="url(#clip0_2003_4584)">
<path d="M9.6 9C9.6 9.33137 9.86863 9.6 10.2 9.6H12.6C13.5941 9.6 14.4 10.4059 14.4 11.4V21.6C14.4 22.9255 13.3255 24 12 24C10.6745 24 9.6 22.9255 9.6 21.6V15C9.6 14.6686 9.33137 14.4 9 14.4H6.6C5.60589 14.4 4.8 13.5941 4.8 12.6V5.4C4.8 5.06863 4.53137 4.8 4.2 4.8H2.4C1.07452 4.8 0 3.72548 0 2.4C0 1.07452 1.07452 5.24537e-07 2.4 5.24537e-07H7.8C8.79411 5.24537e-07 9.6 0.805888 9.6 1.8V9Z" fill="white"/>
<path d="M21.6 14.4C22.9255 14.4 24 15.4745 24 16.8V21.6C24 22.9255 22.9255 24 21.6 24C20.2745 24 19.2 22.9255 19.2 21.6V16.8C19.2 15.4745 20.2745 14.4 21.6 14.4Z" fill="white"/>
<path d="M84 5.24537e-07C85.3255 5.24537e-07 86.4 1.07452 86.4 2.4C86.4 3.72548 85.3255 4.8 84 4.8H72.6C72.2686 4.8 72 5.06863 72 5.4V31.2C72 32.5255 70.9255 33.6 69.6 33.6C68.2745 33.6 67.2 32.5255 67.2 31.2V1.8C67.2 0.805887 68.0059 5.24537e-07 69 5.24537e-07H84Z" fill="white"/>
<path d="M112.8 4.1963e-07C114.125 4.77569e-07 115.2 1.07452 115.2 2.4C115.2 3.72548 114.125 4.8 112.8 4.8L103.2 4.8C101.875 4.8 100.8 3.72548 100.8 2.4C100.8 1.07452 101.875 -5.79387e-08 103.2 0L112.8 4.1963e-07Z" fill="white"/>
<path d="M84 14.4C85.3255 14.4 86.4 15.4745 86.4 16.8C86.4 18.1255 85.3255 19.2 84 19.2H79.2C77.8745 19.2 76.8 18.1255 76.8 16.8C76.8 15.4745 77.8745 14.4 79.2 14.4H84Z" fill="white"/>
<path d="M88.8 4.8C90.1255 4.8 91.2 5.87452 91.2 7.2V12C91.2 13.3255 90.1255 14.4 88.8 14.4C87.4745 14.4 86.4 13.3255 86.4 12V7.2C86.4 5.87452 87.4745 4.8 88.8 4.8Z" fill="white"/>
<path d="M98.4 24C99.7255 24 100.8 25.0745 100.8 26.4C100.8 27.7255 99.7255 28.8 98.4 28.8C97.0745 28.8 96 27.7255 96 26.4C96 25.0745 97.0745 24 98.4 24Z" fill="white"/>
<path d="M117.6 4.8C118.925 4.8 120 5.87452 120 7.2C120 8.52548 118.925 9.6 117.6 9.6C116.275 9.6 115.2 8.52548 115.2 7.2C115.2 5.87452 116.275 4.8 117.6 4.8Z" fill="white"/>
<path d="M98.4 4.8C99.7255 4.8 100.8 5.87452 100.8 7.2V12C100.8 13.3255 99.7255 14.4 98.4 14.4C97.0745 14.4 96 13.3255 96 12V7.2C96 5.87452 97.0745 4.8 98.4 4.8Z" fill="white"/>
<path d="M115.2 16.8C115.2 18.1255 114.125 19.2 112.8 19.2L103.2 19.2C101.875 19.2 100.8 18.1255 100.8 16.8C100.8 15.4745 101.875 14.4 103.2 14.4L112.8 14.4C114.125 14.4 115.2 15.4745 115.2 16.8Z" fill="white"/>
<path d="M117.6 19.2C118.925 19.2 120 20.2745 120 21.6V26.4C120 27.7255 118.925 28.8 117.6 28.8C116.275 28.8 115.2 27.7255 115.2 26.4V21.6C115.2 20.2745 116.275 19.2 117.6 19.2Z" fill="white"/>
<path d="M115.2 31.2C115.2 32.5255 114.125 33.6 112.8 33.6L103.2 33.6C101.875 33.6 100.8 32.5255 100.8 31.2C100.8 29.8745 101.875 28.8 103.2 28.8L112.8 28.8C114.125 28.8 115.2 29.8745 115.2 31.2Z" fill="white"/>
<path d="M88.8 19.2C90.1255 19.2 91.2 20.2745 91.2 21.6V31.2C91.2 32.5255 90.1255 33.6 88.8 33.6C87.4745 33.6 86.4 32.5255 86.4 31.2V21.6C86.4 20.2745 87.4745 19.2 88.8 19.2Z" fill="white"/>
<path d="M31.2 5.24537e-07C32.5255 5.24537e-07 33.6 1.07452 33.6 2.4C33.6 3.72548 32.5255 4.8 31.2 4.8H29.4C29.0686 4.8 28.8 5.06863 28.8 5.4V12C28.8 13.3255 27.7255 14.4 26.4 14.4C25.0745 14.4 24 13.3255 24 12V1.8C24 0.805888 24.8059 5.24537e-07 25.8 5.24537e-07H31.2Z" fill="white"/>
<path d="M60 4.1963e-07C61.3255 4.77569e-07 62.4 1.07452 62.4 2.4C62.4 3.72548 61.3255 4.8 60 4.8L55.2 4.8C53.8745 4.8 52.8 3.72548 52.8 2.4C52.8 1.07452 53.8745 1.51876e-07 55.2 2.09815e-07L60 4.1963e-07Z" fill="white"/>
<path d="M60 28.8C61.3255 28.8 62.4 29.8745 62.4 31.2C62.4 32.5255 61.3255 33.6 60 33.6H50.4C49.0745 33.6 48 32.5255 48 31.2C48 29.8745 49.0745 28.8 50.4 28.8H60Z" fill="white"/>
<path d="M48 2.4C48 3.72548 46.9255 4.8 45.6 4.8H43.8C43.4686 4.8 43.2 5.06863 43.2 5.4V13.8C43.2 14.1314 43.4686 14.4 43.8 14.4H55.2C56.5255 14.4 57.6 15.4745 57.6 16.8C57.6 18.1255 56.5255 19.2 55.2 19.2H43.8C43.4686 19.2 43.2 19.4686 43.2 19.8V31.2C43.2 32.5255 42.1255 33.6 40.8 33.6C39.4745 33.6 38.4 32.5255 38.4 31.2V1.8C38.4 0.805887 39.2059 5.24537e-07 40.2 5.24537e-07H45.6C46.9255 5.24537e-07 48 1.07452 48 2.4Z" fill="white"/>
<path d="M16.8 24C18.1255 24 19.2 25.0745 19.2 26.4V31.2C19.2 32.5255 18.1255 33.6 16.8 33.6C15.4745 33.6 14.4 32.5255 14.4 31.2V26.4C14.4 25.0745 15.4745 24 16.8 24Z" fill="white"/>
</g>
<defs>
<clipPath id="clip0_2003_4584">
<rect width="120" height="34" fill="white"/>
</clipPath>
</defs>
</svg>
